<svg width="224" height="65" viewBox="0 0 224 65" fill="none" xmlns="http://www.w3.org/2000/svg">
<rect width="224" height="65" fill="#E5E5E5"/>
<g clip-path="url(#clip0)">
<path d="M1112 -654H-328V4263H1112V-654Z" fill="white"/>
<g clip-path="url(#clip1)">
<path d="M1233 -547H-408V262H1233V-547Z" fill="#F8F8FB"/>
<path d="M214.782 0.240234H8.81018C4.26025 0.240234 0.571289 3.81817 0.571289 8.23116V56.1767C0.571289 60.5907 4.26025 64.1677 8.81018 64.1677H214.782C219.332 64.1677 223.021 60.5907 223.021 56.1767V8.23116C223.021 3.81817 219.332 0.240234 214.782 0.240234Z" fill="#22264C"/>
<path d="M214.782 1.51875C216.618 1.51875 218.379 2.22594 219.676 3.48551C220.974 4.74408 221.703 6.45118 221.703 8.23116V56.1767C221.703 57.9577 220.974 59.6648 219.676 60.9234C218.379 62.1819 216.618 62.8891 214.782 62.8891H8.81018C6.97497 62.8891 5.21389 62.1819 3.91626 60.9234C2.61864 59.6648 1.88951 57.9577 1.88951 56.1767V8.23116C1.88951 6.45118 2.61864 4.74408 3.91626 3.48551C5.21389 2.22594 6.97497 1.51875 8.81018 1.51875H214.782ZM214.782 0.240234H8.81018C6.62481 0.240234 4.52903 1.08227 2.98424 2.58157C1.43945 4.07987 0.571289 6.11257 0.571289 8.23116V56.1767C0.571289 58.2963 1.43945 60.329 2.98424 61.8273C4.52903 63.3266 6.62481 64.1677 8.81018 64.1677H214.782C216.968 64.1677 219.064 63.3266 220.608 61.8273C222.153 60.329 223.021 58.2963 223.021 56.1767V8.23116C223.021 6.11257 222.153 4.07987 220.608 2.58157C219.064 1.08227 216.968 0.240234 214.782 0.240234Z" fill="#A6A6A6"/>
<path d="M53.4855 31.1066C53.4402 26.1992 57.6286 23.8108 57.8202 23.7C55.4474 20.3458 51.7708 19.8873 50.4783 19.8504C47.3908 19.5357 44.3949 21.6433 42.8223 21.6433C41.2178 21.6433 38.7945 19.8813 36.1838 19.9332C32.8244 19.9832 29.6813 21.87 27.9573 24.7997C24.3991 30.7729 27.0531 39.552 30.4609 44.3805C32.1663 46.7458 34.1581 49.3858 36.7667 49.2929C39.3177 49.191 40.2703 47.7157 43.3496 47.7157C46.4 47.7157 47.295 49.2929 49.9541 49.234C52.6925 49.1911 54.4165 46.8587 56.0622 44.4724C58.0323 41.7615 58.8233 39.0925 58.8552 38.9547C58.7903 38.9337 53.537 36.9889 53.4855 31.1066Z" fill="white"/>
<path d="M48.4612 16.6741C49.8329 15.01 50.7722 12.7457 50.5116 10.4473C48.525 10.5332 46.042 11.7797 44.6115 13.4079C43.3458 14.8423 42.215 17.1936 42.5075 19.405C44.7382 19.5659 47.0286 18.3123 48.4612 16.6741Z" fill="white"/>
<path d="M90.407 48.9535H86.8416L84.889 43.0012H78.1002L76.2392 48.9535H72.7686L79.4936 28.6885H83.648L90.407 48.9535ZM84.2999 40.5031L82.5337 35.2121C82.3463 34.6717 81.9961 33.3981 81.4801 31.3944H81.4173C81.2114 32.2564 80.8808 33.529 80.4245 35.2121L78.6903 40.5031H84.2999Z" fill="white"/>
<path d="M107.702 41.4676C107.702 43.9518 107.01 45.9166 105.625 47.3589C104.385 48.6425 102.845 49.2838 101.006 49.2838C99.0213 49.2838 97.596 48.5925 96.7278 47.2091H96.665V54.9074H93.3179V39.1513C93.3179 37.589 93.2757 35.9848 93.1943 34.3407H96.1377L96.3241 36.6571H96.3869C97.5033 34.912 99.1974 34.041 101.471 34.041C103.248 34.041 104.732 34.7212 105.918 36.0837C107.109 37.4481 107.702 39.2421 107.702 41.4676ZM104.292 41.5855C104.292 40.1641 103.963 38.9914 103.3 38.0684C102.576 37.1055 101.604 36.6251 100.386 36.6251C99.5599 36.6251 98.8102 36.8928 98.1397 37.4212C97.4672 37.9546 97.0275 38.6498 96.8225 39.5118C96.7185 39.9144 96.667 40.243 96.667 40.5017V42.9379C96.667 44.0007 97.0028 44.8977 97.6742 45.6299C98.3467 46.3631 99.219 46.7287 100.293 46.7287C101.554 46.7287 102.535 46.2562 103.238 45.3152C103.941 44.3723 104.292 43.1297 104.292 41.5855Z" fill="white"/>
<path d="M125.032 41.4676C125.032 43.9518 124.34 45.9166 122.953 47.3589C121.715 48.6425 120.174 49.2838 118.336 49.2838C116.351 49.2838 114.926 48.5925 114.059 47.2091H113.996V54.9074H110.649V39.1513C110.649 37.589 110.607 35.9848 110.525 34.3407H113.469L113.655 36.6571H113.718C114.833 34.912 116.527 34.041 118.802 34.041C120.578 34.041 122.062 34.7212 123.251 36.0837C124.437 37.4481 125.032 39.2421 125.032 41.4676ZM121.622 41.5855C121.622 40.1641 121.291 38.9914 120.628 38.0684C119.904 37.1055 118.935 36.6251 117.716 36.6251C116.888 36.6251 116.139 36.8928 115.468 37.4212C114.795 37.9546 114.357 38.6498 114.152 39.5118C114.05 39.9144 113.996 40.243 113.996 40.5017V42.9379C113.996 44.0007 114.333 44.8977 115.001 45.6299C115.673 46.3611 116.546 46.7287 117.623 46.7287C118.884 46.7287 119.865 46.2562 120.567 45.3152C121.27 44.3723 121.622 43.1297 121.622 41.5855Z" fill="white"/>
<path d="M144.405 43.2708C144.405 44.9938 143.788 46.3962 142.549 47.479C141.189 48.6627 139.294 49.253 136.858 49.253C134.61 49.253 132.808 48.8335 131.443 47.9914L132.219 45.2855C133.688 46.1465 135.301 46.579 137.058 46.579C138.319 46.579 139.3 46.3023 140.005 45.751C140.707 45.1996 141.057 44.4594 141.057 43.5364C141.057 42.7144 140.768 42.0222 140.189 41.4598C139.612 40.8974 138.65 40.376 137.306 39.8926C133.648 38.5701 131.82 36.6313 131.82 34.0822C131.82 32.4161 132.461 31.0506 133.744 29.9868C135.021 28.923 136.727 28.3916 138.858 28.3916C140.759 28.3916 142.339 28.7123 143.6 29.3535L142.764 32.0005C141.585 31.3792 140.255 31.0686 138.765 31.0686C137.586 31.0686 136.667 31.3503 136.008 31.9106C135.451 32.4111 135.17 33.0223 135.17 33.7455C135.17 34.5466 135.49 35.2089 136.13 35.7293C136.687 36.2108 137.7 36.7311 139.169 37.2935C140.967 37.9957 142.288 38.8158 143.137 39.7578C143.983 40.6957 144.405 41.8693 144.405 43.2708Z" fill="white"/>
<path d="M155.473 36.7773H151.784V43.8722C151.784 45.6761 152.434 46.5782 153.737 46.5782C154.335 46.5782 154.831 46.5272 155.224 46.4273L155.316 48.8925C154.656 49.1312 153.788 49.2521 152.713 49.2521C151.39 49.2521 150.358 48.8606 149.612 48.0795C148.869 47.2963 148.496 45.9838 148.496 44.1399V36.7743H146.298V34.338H148.496V31.6621L151.784 30.7002V34.338H155.473V36.7773Z" fill="white"/>
<path d="M172.12 41.5265C172.12 43.773 171.457 45.6169 170.136 47.0592C168.749 48.5435 166.909 49.2837 164.616 49.2837C162.404 49.2837 160.644 48.5725 159.332 47.1501C158.019 45.7277 157.363 43.9328 157.363 41.7692C157.363 39.5048 158.039 37.6499 159.393 36.2076C160.745 34.7642 162.569 34.042 164.864 34.042C167.074 34.042 168.852 34.7532 170.195 36.1776C171.48 37.558 172.12 39.342 172.12 41.5265ZM168.648 41.6314C168.648 40.2839 168.35 39.1282 167.749 38.1643C167.047 36.9976 166.044 36.4163 164.744 36.4163C163.398 36.4163 162.377 36.9996 161.674 38.1643C161.073 39.1302 160.776 40.3039 160.776 41.6923C160.776 43.0398 161.073 44.1965 161.674 45.1584C162.398 46.3251 163.41 46.9064 164.714 46.9064C165.992 46.9064 166.996 46.313 167.72 45.1284C168.337 44.1455 168.648 42.9779 168.648 41.6314Z" fill="white"/>
<path d="M182.999 37.1955C182.669 37.1365 182.315 37.1055 181.945 37.1055C180.766 37.1055 179.856 37.5371 179.215 38.4001C178.658 39.1612 178.379 40.1241 178.379 41.2858V48.9531H175.033L175.064 38.9424C175.064 37.2584 175.022 35.7251 174.938 34.3417H177.854L177.977 37.1375H178.069C178.422 36.1766 178.981 35.4035 179.743 34.8231C180.489 34.3007 181.295 34.041 182.163 34.041C182.472 34.041 182.751 34.062 182.999 34.1V37.1955Z" fill="white"/>
<path d="M197.969 40.9558C197.969 41.5381 197.93 42.0286 197.847 42.4291H187.805C187.844 43.8725 188.329 44.9762 189.262 45.7374C190.108 46.4186 191.202 46.7592 192.546 46.7592C194.033 46.7592 195.39 46.5295 196.609 46.068L197.134 48.3215C195.708 48.9248 194.025 49.2244 192.083 49.2244C189.747 49.2244 187.913 48.5581 186.579 47.2257C185.247 45.8932 184.58 44.1032 184.58 41.8588C184.58 39.6553 185.2 37.8204 186.442 36.357C187.742 34.7948 189.499 34.0137 191.71 34.0137C193.881 34.0137 195.524 34.7948 196.641 36.357C197.524 37.5986 197.969 39.1339 197.969 40.9558ZM194.777 40.1137C194.799 39.1518 194.581 38.3198 194.127 37.6186C193.548 36.7156 192.657 36.2641 191.46 36.2641C190.366 36.2641 189.475 36.7046 188.795 37.5876C188.238 38.2898 187.907 39.1319 187.805 40.1128H194.777V40.1137Z" fill="white"/>
<path d="M83.1926 16.2217C83.1926 18.0147 82.6385 19.3632 81.5314 20.2691C80.5056 21.1052 79.0494 21.5247 77.1617 21.5247C76.2266 21.5247 75.4253 21.4847 74.7549 21.4058V11.613C75.6292 11.4762 76.5716 11.4053 77.5891 11.4053C79.3862 11.4053 80.7415 11.7848 81.655 12.543C82.6787 13.401 83.1926 14.6266 83.1926 16.2217ZM81.4572 16.2667C81.4572 15.1041 81.14 14.2141 80.5056 13.5928C79.8723 12.9725 78.9454 12.6618 77.726 12.6618C77.207 12.6618 76.7662 12.6958 76.4006 12.7657V20.2102C76.6035 20.2412 76.9732 20.2542 77.5118 20.2542C78.7713 20.2542 79.7435 19.9146 80.4274 19.2353C81.1122 18.5561 81.4572 17.5673 81.4572 16.2667Z" fill="white"/>
<path d="M92.3908 17.7882C92.3908 18.8919 92.0654 19.7959 91.4155 20.5061C90.7338 21.2352 89.8316 21.5989 88.7039 21.5989C87.6174 21.5989 86.7523 21.2502 86.1076 20.55C85.464 19.8508 85.1416 18.9698 85.1416 17.906C85.1416 16.7953 85.4732 15.8823 86.1385 15.1751C86.8048 14.4669 87.6998 14.1113 88.8265 14.1113C89.913 14.1113 90.7863 14.4609 91.4464 15.1592C92.0746 15.8384 92.3908 16.7154 92.3908 17.7882ZM90.6843 17.8391C90.6843 17.1768 90.536 16.6095 90.2425 16.135C89.8975 15.5627 89.4063 15.277 88.7667 15.277C88.1056 15.277 87.604 15.5627 87.258 16.135C86.9635 16.6095 86.8172 17.1858 86.8172 17.8681C86.8172 18.5303 86.9645 19.0987 87.258 19.5721C87.6143 20.1445 88.1107 20.4312 88.7513 20.4312C89.3795 20.4312 89.8718 20.1405 90.2271 19.5572C90.5319 19.0747 90.6843 18.5023 90.6843 17.8391Z" fill="white"/>
<path d="M104.726 14.2578L102.41 21.4356H100.903L99.9432 18.3181C99.7001 17.54 99.5024 16.7669 99.3489 15.9998H99.3191C99.1759 16.7879 98.9782 17.56 98.7238 18.3181L97.7042 21.4356H96.1801L94.0029 14.2578H95.694L96.5302 17.6699C96.7331 18.477 96.8989 19.2461 97.0328 19.9743H97.0627C97.1852 19.3739 97.387 18.6098 97.6733 17.6849L98.7238 14.2588H100.065L101.071 17.612C101.314 18.43 101.512 19.2172 101.664 19.9753H101.709C101.822 19.2371 101.99 18.45 102.212 17.612L103.11 14.2588H104.726V14.2578Z" fill="white"/>
<path d="M113.254 21.4361H111.609V17.3247C111.609 16.0582 111.113 15.4239 110.117 15.4239C109.629 15.4239 109.235 15.5977 108.928 15.9463C108.626 16.2949 108.472 16.7065 108.472 17.1769V21.4351H106.826V16.3089C106.826 15.6786 106.806 14.9954 106.767 14.2552H108.213L108.29 15.377H108.335C108.527 15.0284 108.813 14.7407 109.188 14.511C109.634 14.2423 110.133 14.1074 110.679 14.1074C111.37 14.1074 111.945 14.3232 112.402 14.7577C112.969 15.2891 113.254 16.0822 113.254 17.136V21.4361Z" fill="white"/>
<path d="M117.793 21.436H116.149V10.9639H117.793V21.436Z" fill="white"/>
<path d="M127.479 17.7882C127.479 18.8919 127.153 19.7959 126.503 20.5061C125.823 21.2352 124.918 21.5989 123.793 21.5989C122.704 21.5989 121.839 21.2502 121.196 20.55C120.552 19.8508 120.229 18.9698 120.229 17.906C120.229 16.7953 120.561 15.8823 121.227 15.1751C121.893 14.4669 122.788 14.1113 123.913 14.1113C125.001 14.1113 125.872 14.4609 126.535 15.1592C127.164 15.8384 127.479 16.7154 127.479 17.7882ZM125.77 17.8391C125.77 17.1768 125.623 16.6095 125.329 16.135C124.985 15.5627 124.492 15.277 123.855 15.277C123.192 15.277 122.69 15.5627 122.346 16.135C122.051 16.6095 121.905 17.1858 121.905 17.8681C121.905 18.5303 122.052 19.0987 122.346 19.5721C122.703 20.1445 123.199 20.4312 123.839 20.4312C124.467 20.4312 124.959 20.1405 125.314 19.5572C125.62 19.0747 125.77 18.5023 125.77 17.8391Z" fill="white"/>
<path d="M135.441 21.436H133.965L133.842 20.609H133.797C133.291 21.2692 132.57 21.5989 131.634 21.5989C130.936 21.5989 130.37 21.3811 129.945 20.9486C129.559 20.5561 129.366 20.0676 129.366 19.4873C129.366 18.6102 129.742 17.942 130.501 17.4785C131.258 17.0161 132.322 16.7883 133.693 16.7993V16.6654C133.693 15.7195 133.181 15.248 132.156 15.248C131.426 15.248 130.782 15.4258 130.226 15.7794L129.891 14.7317C130.579 14.3191 131.429 14.1113 132.43 14.1113C134.365 14.1113 135.335 15.1012 135.335 17.081V19.725C135.335 20.4422 135.371 21.0125 135.441 21.436ZM133.734 18.9698V17.8621C131.918 17.8321 131.011 18.3145 131.011 19.3094C131.011 19.684 131.115 19.9637 131.327 20.1515C131.538 20.3383 131.809 20.4312 132.13 20.4312C132.492 20.4312 132.83 20.3203 133.136 20.0995C133.446 19.8768 133.636 19.5951 133.707 19.2495C133.725 19.1716 133.734 19.0777 133.734 18.9698Z" fill="white"/>
<path d="M144.79 21.436H143.33L143.253 20.2833H143.208C142.741 21.1603 141.947 21.5988 140.831 21.5988C139.939 21.5988 139.196 21.2592 138.607 20.58C138.019 19.9017 137.726 19.0197 137.726 17.937C137.726 16.7753 138.044 15.8343 138.684 15.1152C139.304 14.4449 140.064 14.1103 140.969 14.1103C141.962 14.1103 142.659 14.4349 143.054 15.0852H143.085V10.9639H144.733V19.5022C144.733 20.2014 144.751 20.8456 144.79 21.436ZM143.085 18.4094V17.2118C143.085 17.005 143.07 16.8372 143.04 16.7094C142.947 16.3258 142.748 16.0031 142.444 15.7424C142.139 15.4817 141.77 15.3509 141.344 15.3509C140.731 15.3509 140.25 15.5876 139.897 16.0611C139.546 16.5346 139.369 17.1389 139.369 17.877C139.369 18.5872 139.537 19.1625 139.875 19.606C140.231 20.0775 140.711 20.3143 141.313 20.3143C141.853 20.3143 142.285 20.1174 142.612 19.7229C142.929 19.3593 143.085 18.9208 143.085 18.4094Z" fill="white"/>
<path d="M158.863 17.7882C158.863 18.8919 158.538 19.7959 157.888 20.5061C157.206 21.2352 156.305 21.5989 155.177 21.5989C154.092 21.5989 153.227 21.2502 152.58 20.55C151.937 19.8508 151.614 18.9698 151.614 17.906C151.614 16.7953 151.946 15.8823 152.611 15.1751C153.277 14.4669 154.171 14.1113 155.301 14.1113C156.386 14.1113 157.26 14.4609 157.919 15.1592C158.547 15.8384 158.863 16.7154 158.863 17.7882ZM157.158 17.8391C157.158 17.1768 157.011 16.6095 156.717 16.135C156.37 15.5627 155.88 15.277 155.239 15.277C154.58 15.277 154.078 15.5627 153.731 16.135C153.435 16.6095 153.29 17.1858 153.29 17.8681C153.29 18.5303 153.437 19.0987 153.731 19.5721C154.087 20.1445 154.583 20.4312 155.224 20.4312C155.852 20.4312 156.346 20.1405 156.701 19.5572C157.005 19.0747 157.158 18.5023 157.158 17.8391Z" fill="white"/>
<path d="M167.711 21.4361H166.067V17.3247C166.067 16.0582 165.571 15.4239 164.574 15.4239C164.086 15.4239 163.691 15.5977 163.386 15.9463C163.082 16.2949 162.93 16.7065 162.93 17.1769V21.4351H161.283V16.3089C161.283 15.6786 161.264 14.9954 161.225 14.2552H162.669L162.746 15.377H162.792C162.985 15.0284 163.271 14.7407 163.644 14.511C164.092 14.2423 164.589 14.1074 165.137 14.1074C165.826 14.1074 166.401 14.3232 166.858 14.7577C167.427 15.2891 167.711 16.0822 167.711 17.136V21.4361Z" fill="white"/>
<path d="M178.783 15.4533H176.972V18.9404C176.972 19.8264 177.293 20.2699 177.93 20.2699C178.226 20.2699 178.47 20.2449 178.664 20.1949L178.706 21.4055C178.381 21.5244 177.954 21.5834 177.428 21.5834C176.778 21.5834 176.272 21.3916 175.907 21.008C175.539 20.6245 175.357 19.9782 175.357 19.0722V15.4533H174.275V14.2577H175.357V12.9422L176.969 12.4697V14.2557H178.781V15.4533H178.783Z" fill="white"/>
<path d="M187.494 21.436H185.847V17.3556C185.847 16.0681 185.351 15.4248 184.357 15.4248C183.594 15.4248 183.073 15.7974 182.787 16.5435C182.738 16.7003 182.71 16.8921 182.71 17.1179V21.435H181.066V10.9639H182.71V15.2899H182.741C183.259 14.5028 184.003 14.1103 184.964 14.1103C185.646 14.1103 186.21 14.3261 186.657 14.7606C187.215 15.301 187.494 16.105 187.494 17.1678V21.436Z" fill="white"/>
<path d="M196.48 17.5068C196.48 17.7935 196.459 18.0342 196.419 18.23H191.484C191.506 18.9401 191.742 19.4805 192.199 19.855C192.616 20.1897 193.155 20.3575 193.814 20.3575C194.544 20.3575 195.21 20.2446 195.81 20.0179L196.067 21.1266C195.366 21.4223 194.54 21.5691 193.583 21.5691C192.437 21.5691 191.535 21.2425 190.882 20.5872C190.225 19.933 189.9 19.054 189.9 17.9513C189.9 16.8685 190.203 15.9675 190.814 15.2483C191.451 14.4812 192.313 14.0977 193.401 14.0977C194.466 14.0977 195.274 14.4812 195.821 15.2483C196.262 15.8576 196.48 16.6118 196.48 17.5068ZM194.91 17.0942C194.923 16.6208 194.814 16.2122 194.591 15.8686C194.306 15.4251 193.871 15.2034 193.282 15.2034C192.745 15.2034 192.307 15.4192 191.972 15.8527C191.7 16.1993 191.538 16.6118 191.484 17.0942H194.91Z" fill="white"/>
</g>
</g>
<defs>
<clipPath id="clip0">
<rect width="1440" height="5400" fill="white" transform="translate(-328 -654)"/>
</clipPath>
<clipPath id="clip1">
<rect width="1483" height="881" fill="white" transform="translate(-364 -619)"/>
</clipPath>
</defs>
</svg>
