<svg width="223" height="65" viewBox="0 0 223 65" fill="none" xmlns="http://www.w3.org/2000/svg">
<rect width="223" height="65" fill="#E5E5E5"/>
<g clip-path="url(#clip0)">
<path d="M1372 -654H-68V4263H1372V-654Z" fill="white"/>
<g clip-path="url(#clip1)">
<path d="M1493 -547H-148V262H1493V-547Z" fill="#F8F8FB"/>
<path d="M214.227 0.240234H8.25451C3.70459 0.240234 0.015625 3.81817 0.015625 8.23116V56.1767C0.015625 60.5907 3.70459 64.1677 8.25451 64.1677H214.227C218.777 64.1677 222.466 60.5907 222.466 56.1767V8.23116C222.466 3.81817 218.777 0.240234 214.227 0.240234Z" fill="#22264C"/>
<path d="M214.227 1.51875C216.062 1.51875 217.823 2.22594 219.121 3.48551C220.418 4.74408 221.147 6.45118 221.147 8.23116V56.1767C221.147 57.9577 220.418 59.6648 219.121 60.9234C217.823 62.1819 216.062 62.8891 214.227 62.8891H8.25451C6.4193 62.8891 4.65824 62.1819 3.36062 60.9234C2.06299 59.6648 1.33385 57.9577 1.33385 56.1767V8.23116C1.33385 6.45118 2.06299 4.74408 3.36062 3.48551C4.65824 2.22594 6.4193 1.51875 8.25451 1.51875H214.227ZM214.227 0.240234H8.25451C6.06915 0.240234 3.97338 1.08227 2.42859 2.58157C0.8838 4.07987 0.015625 6.11257 0.015625 8.23116V56.1767C0.015625 58.2963 0.8838 60.329 2.42859 61.8273C3.97338 63.3266 6.06915 64.1677 8.25451 64.1677H214.227C216.412 64.1677 218.508 63.3266 220.053 61.8273C221.597 60.329 222.466 58.2963 222.466 56.1767V8.23116C222.466 6.11257 221.597 4.07987 220.053 2.58157C218.508 1.08227 216.412 0.240234 214.227 0.240234Z" fill="#A6A6A6"/>
<path d="M112.296 35.0019C110.912 35.0078 109.562 35.4114 108.414 36.1615C107.267 36.9117 106.374 37.9745 105.849 39.2161C105.324 40.4587 105.19 41.8231 105.464 43.1386C105.738 44.4541 106.407 45.6608 107.389 46.6077C108.369 47.5546 109.617 48.1979 110.975 48.4576C112.332 48.7173 113.739 48.5805 115.016 48.0661C116.294 47.5507 117.386 46.6806 118.154 45.5639C118.922 44.4482 119.332 43.1357 119.332 41.7942C119.345 40.8952 119.172 40.0042 118.823 39.1722C118.474 38.3401 117.955 37.584 117.299 36.9507C116.642 36.3164 115.861 35.8179 115.001 35.4823C114.143 35.1477 113.222 34.9839 112.296 35.0019ZM112.296 45.9175C111.444 45.9744 110.596 45.7827 109.858 45.3661C109.122 44.9496 108.531 44.3273 108.163 43.5812C107.796 42.835 107.668 41.9979 107.797 41.1798C107.925 40.3628 108.305 39.6017 108.886 38.9954C109.467 38.3901 110.223 37.9675 111.055 37.7837C111.886 37.5999 112.755 37.6628 113.55 37.9645C114.344 38.2662 115.026 38.7926 115.508 39.4758C115.99 40.159 116.249 40.9661 116.251 41.7942C116.277 42.3176 116.195 42.842 116.01 43.3354C115.824 43.8279 115.538 44.2804 115.169 44.6639C114.802 45.0485 114.357 45.3571 113.863 45.5729C113.37 45.7876 112.837 45.9045 112.296 45.9175ZM96.9552 35.0019C95.5711 35.0048 94.2178 35.4054 93.0685 36.1536C91.9192 36.9017 91.0242 37.9645 90.4969 39.2051C89.9697 40.4467 89.8327 41.8122 90.1046 43.1287C90.3775 44.4452 91.0448 45.6538 92.0253 46.6027C93.0057 47.5506 94.2529 48.1959 95.6112 48.4566C96.9696 48.7173 98.3764 48.5825 99.6555 48.067C100.934 47.5526 102.026 46.6826 102.796 45.5659C103.564 44.4492 103.975 43.1367 103.975 41.7942C103.988 40.8952 103.815 40.0042 103.466 39.1722C103.117 38.3401 102.598 37.584 101.942 36.9507C101.285 36.3164 100.504 35.8179 99.6442 35.4823C98.7853 35.1477 97.8646 34.9839 96.9387 35.0019H96.9552ZM96.9552 45.9175C96.1035 45.9784 95.2528 45.7886 94.5144 45.3741C93.775 44.9606 93.1818 44.3393 92.8111 43.5931C92.4413 42.847 92.3105 42.0109 92.4382 41.1919C92.5649 40.3728 92.9429 39.6106 93.5227 39.0023C94.1035 38.395 94.8584 37.9715 95.6905 37.7857C96.5227 37.601 97.3929 37.6629 98.188 37.9635C98.983 38.2652 99.6668 38.7916 100.149 39.4748C100.632 40.158 100.891 40.9661 100.893 41.7942C100.92 42.3176 100.838 42.842 100.652 43.3354C100.467 43.8279 100.181 44.2804 99.812 44.6639C99.4444 45.0485 98.9995 45.3571 98.5062 45.5729C98.0129 45.7876 97.4794 45.9045 96.9387 45.9175H96.9552ZM78.6814 37.0955V39.9722H85.7998C85.6875 41.3267 85.1077 42.6053 84.152 43.6001C83.4393 44.3033 82.5835 44.8547 81.6381 45.2183C80.6937 45.5809 79.6803 45.7487 78.6649 45.7097C76.567 45.7097 74.5547 44.9007 73.0717 43.4623C71.5887 42.0239 70.7555 40.0721 70.7555 38.0384C70.7555 36.0038 71.5887 34.0519 73.0717 32.6136C74.5547 31.1752 76.567 30.3672 78.6649 30.3672C80.671 30.3352 82.6093 31.0763 84.0531 32.4288L86.1458 30.3991C85.1705 29.4412 84.0078 28.684 82.7256 28.1706C81.4434 27.6572 80.0686 27.3985 78.6814 27.4105C77.2159 27.3546 75.7545 27.5873 74.3848 28.0927C73.0151 28.5981 71.7638 29.3663 70.7071 30.3522C69.6505 31.338 68.8101 32.5207 68.2355 33.8282C67.6618 35.1367 67.3652 36.5441 67.3652 37.9665C67.3652 39.3879 67.6618 40.7953 68.2355 42.1038C68.8101 43.4114 69.6505 44.594 70.7071 45.5799C71.7638 46.5658 73.0151 47.3339 74.3848 47.8393C75.7545 48.3458 77.2159 48.5775 78.6814 48.5225C80.0912 48.5835 81.4991 48.3517 82.809 47.8423C84.12 47.3319 85.3023 46.5558 86.2776 45.5659C88.0037 43.726 88.9254 41.3077 88.8481 38.8216C88.8533 38.2152 88.7977 37.6109 88.6834 37.0156L78.6814 37.0955ZM153.342 39.3329C152.913 38.1063 152.108 37.0356 151.037 36.2624C149.966 35.4883 148.678 35.0488 147.344 35.0019C146.443 34.9999 145.55 35.1777 144.723 35.5233C143.895 35.8689 143.15 36.3763 142.532 37.0126C141.914 37.6498 141.437 38.402 141.131 39.2241C140.825 40.0472 140.697 40.9212 140.753 41.7942C140.733 42.6872 140.898 43.5751 141.24 44.4042C141.582 45.2343 142.093 45.9884 142.742 46.6227C143.391 47.257 144.165 47.7574 145.018 48.095C145.872 48.4316 146.785 48.5995 147.707 48.5865C148.859 48.5925 149.995 48.3208 151.014 47.7964C152.031 47.272 152.899 46.5108 153.54 45.5819L151.151 43.9837C150.794 44.56 150.289 45.0365 149.685 45.3671C149.082 45.6977 148.4 45.8705 147.707 45.8695C146.993 45.8955 146.288 45.7127 145.682 45.3452C145.077 44.9776 144.6 44.4422 144.312 43.8079L153.688 40.0522L153.342 39.3329ZM143.785 41.6024C143.751 41.108 143.82 40.6115 143.987 40.1431C144.154 39.6756 144.414 39.2441 144.755 38.8745C145.096 38.5059 145.509 38.2062 145.97 37.9935C146.432 37.7817 146.932 37.6608 147.443 37.6389C147.975 37.6049 148.505 37.7228 148.967 37.9785C149.43 38.2342 149.806 38.6158 150.047 39.0772L143.785 41.6024ZM136.172 48.1869H139.254V28.2096H136.172V48.1869ZM131.13 36.5201H131.015C130.55 36.0157 129.981 35.6132 129.345 35.3385C128.709 35.0628 128.02 34.921 127.324 34.922C125.523 35.0059 123.824 35.76 122.581 37.0256C121.337 38.2921 120.644 39.9732 120.644 41.7223C120.644 43.4703 121.337 45.1524 122.581 46.4179C123.824 47.6845 125.523 48.4376 127.324 48.5225C128.022 48.5335 128.714 48.3967 129.352 48.12C129.989 47.8443 130.558 47.4358 131.015 46.9244H131.114V47.8993C131.114 50.5043 129.68 51.8947 127.373 51.8947C126.605 51.8768 125.859 51.638 125.231 51.2085C124.603 50.779 124.121 50.1777 123.847 49.4815L121.161 50.5682C121.667 51.7609 122.528 52.7797 123.635 53.4949C124.742 54.2091 126.044 54.5867 127.373 54.5797C130.982 54.5797 133.964 52.518 133.964 47.4997V35.4014H131.13V36.5201ZM127.604 45.9175C126.541 45.8266 125.551 45.3521 124.83 44.589C124.111 43.8259 123.711 42.829 123.711 41.7942C123.711 40.7594 124.111 39.7615 124.83 38.9984C125.551 38.2352 126.541 37.7617 127.604 37.6708C128.13 37.6968 128.647 37.8247 129.122 38.0474C129.597 38.2702 130.021 38.5828 130.37 38.9674C130.718 39.3519 130.984 39.7994 131.152 40.2849C131.319 40.7703 131.385 41.2838 131.344 41.7942C131.389 42.3066 131.327 42.822 131.16 43.3105C130.993 43.7989 130.726 44.2494 130.375 44.635C130.024 45.0205 129.596 45.3332 129.117 45.5529C128.638 45.7737 128.117 45.8975 127.587 45.9175H127.604ZM167.777 28.2096H160.411V48.1869H163.492V40.6115H167.793C168.671 40.6724 169.553 40.5576 170.383 40.2739C171.213 39.9892 171.974 39.5428 172.619 38.9614C173.264 38.3791 173.778 37.6748 174.129 36.8917C174.481 36.1086 174.662 35.2636 174.662 34.4105C174.662 33.5565 174.481 32.7115 174.129 31.9284C173.778 31.1453 173.264 30.4411 172.619 29.8597C171.974 29.2774 171.213 28.8309 170.383 28.5472C169.553 28.2625 168.671 28.1476 167.793 28.2096H167.777ZM167.777 37.7987H163.476V30.9904H167.843C168.78 30.9904 169.679 31.351 170.342 31.9943C171.004 32.6365 171.377 33.5086 171.377 34.4185C171.377 35.3275 171.004 36.1995 170.342 36.8418C169.679 37.4851 168.78 37.8466 167.843 37.8466L167.777 37.7987ZM186.776 34.922C185.654 34.8561 184.537 35.1108 183.561 35.6532C182.587 36.1955 181.797 37.0016 181.288 37.9745L184.024 39.0772C184.294 38.5948 184.701 38.1993 185.199 37.9375C185.696 37.6768 186.261 37.562 186.825 37.6069C187.216 37.562 187.612 37.594 187.991 37.6998C188.369 37.8057 188.722 37.9835 189.029 38.2232C189.336 38.463 189.59 38.7586 189.778 39.0952C189.965 39.4308 190.081 39.7994 190.121 40.18V40.3878C189.131 39.8793 188.027 39.6156 186.907 39.6206C183.958 39.6206 180.975 41.2188 180.975 44.1115C181.004 44.7278 181.161 45.3332 181.435 45.8895C181.709 46.4469 182.096 46.9453 182.572 47.3548C183.049 47.7644 183.605 48.078 184.207 48.2758C184.811 48.4736 185.448 48.5515 186.084 48.5065C186.859 48.5605 187.636 48.4106 188.332 48.073C189.028 47.7354 189.617 47.223 190.038 46.5887H190.137V48.1869H193.103V40.4996C193.103 36.9996 190.368 34.9699 186.858 34.9699L186.776 34.922ZM186.397 45.8695C185.391 45.8695 183.991 45.3741 183.991 44.1755C183.991 42.5773 185.737 42.0499 187.286 42.0499C188.265 42.0259 189.233 42.2576 190.088 42.7211C189.985 43.5861 189.562 44.3862 188.899 44.9736C188.236 45.5609 187.377 45.8955 186.479 45.9175L186.397 45.8695ZM203.912 35.4014L200.386 44.0636H200.287L196.629 35.4014H193.334L198.821 47.5157L195.69 54.2441H198.903L207.34 35.4014H203.912ZM176.213 48.1869H179.295V28.2096H176.213V48.1869Z" fill="white"/>
<path d="M78.0497 16.7058C78.0775 17.2921 77.9828 17.8784 77.7706 18.4278C77.5575 18.9772 77.2331 19.4786 76.8139 19.9021C76.3463 20.3735 75.782 20.7431 75.1579 20.9888C74.5328 21.2336 73.8623 21.3484 73.1888 21.3245C72.1672 21.3175 71.1703 21.0168 70.3237 20.4625C69.4772 19.9081 68.818 19.123 68.4298 18.207C68.0405 17.2901 67.9396 16.2832 68.1384 15.3113C68.3371 14.3395 68.8273 13.4454 69.5472 12.7422C70.0209 12.2738 70.5884 11.9042 71.2145 11.6575C71.8407 11.4098 72.5132 11.2899 73.1888 11.3039C73.886 11.3019 74.575 11.4378 75.2156 11.7035C75.8118 11.9372 76.3432 12.3037 76.7645 12.7742L75.8911 13.6213C75.5626 13.2427 75.1476 12.942 74.678 12.7452C74.2094 12.5485 73.6996 12.4596 73.1888 12.4866C72.6739 12.4846 72.1641 12.5834 71.6903 12.7762C71.2156 12.97 70.7861 13.2536 70.4277 13.6122C70.0693 13.9698 69.7882 14.3953 69.6038 14.8608C69.4185 15.3263 69.332 15.8237 69.3495 16.3222C69.3392 17.0673 69.5554 17.7995 69.9736 18.4248C70.3907 19.0501 70.989 19.5415 71.6945 19.8372C72.3989 20.1329 73.1785 20.2197 73.9344 20.0859C74.6903 19.953 75.3886 19.6054 75.9406 19.087C76.4483 18.5546 76.7397 17.8624 76.7645 17.1373H73.1888V15.9865H77.9838C78.0281 16.2243 78.0497 16.465 78.0497 16.7058ZM85.5966 12.7103H81.1476V15.7468H85.2011V16.8975H81.1476V19.9341H85.5966V21.1167H79.8293V11.5276H85.5966V12.7103ZM91.0013 21.1167H89.7325V12.7103H86.9642V11.5276H93.8354V12.7103H91.0013V21.1167ZM98.6799 21.1167V11.5276H99.9487V21.1167H98.6799ZM105.584 21.1167H104.315V12.7103H101.547V11.5276H108.336V12.7103H105.584V21.1167ZM121.205 19.8701C120.242 20.8001 118.938 21.3215 117.58 21.3215C116.222 21.3215 114.919 20.8001 113.955 19.8701C113.019 18.9092 112.498 17.6367 112.498 16.3142C112.498 14.9927 113.019 13.7201 113.955 12.7582C114.43 12.2948 114.995 11.9262 115.617 11.6755C116.239 11.4238 116.906 11.2949 117.58 11.2949C118.254 11.2949 118.922 11.4238 119.544 11.6755C120.166 11.9262 120.73 12.2948 121.205 12.7582C122.145 13.7181 122.669 14.9907 122.669 16.3142C122.669 17.6387 122.145 18.9112 121.205 19.8701ZM114.894 19.071C115.608 19.7603 116.574 20.1478 117.58 20.1478C118.587 20.1478 119.552 19.7603 120.266 19.071C120.97 18.3189 121.36 17.339 121.36 16.3222C121.36 15.3063 120.97 14.3264 120.266 13.5733C119.552 12.8851 118.587 12.4975 117.58 12.4975C116.574 12.4975 115.608 12.8851 114.894 13.5733C114.191 14.3264 113.8 15.3063 113.8 16.3222C113.8 17.339 114.191 18.3189 114.894 19.071ZM124.451 21.1167V11.5276H126L130.812 18.9911V11.5276H132.08V21.1167H130.762L125.736 13.3016V21.1167H124.451Z" fill="white"/>
<path fill-rule="evenodd" clip-rule="evenodd" d="M117.58 11.4544C116.928 11.4544 116.282 11.5793 115.68 11.823C115.078 12.0657 114.532 12.4213 114.073 12.8698C113.167 13.8008 112.662 15.0334 112.662 16.3139C112.662 17.5955 113.167 18.8271 114.073 19.7591C115.005 20.657 116.266 21.1615 117.58 21.1615C118.894 21.1615 120.155 20.657 121.087 19.7591C121.997 18.8291 122.504 17.5965 122.504 16.3139C122.504 15.0324 121.997 13.7998 121.086 12.8698C120.628 12.4213 120.081 12.0657 119.48 11.823C118.877 11.5793 118.232 11.4544 117.58 11.4544ZM115.553 11.5273C116.196 11.2686 116.885 11.1348 117.58 11.1348C118.276 11.1348 118.965 11.2686 119.606 11.5273C120.249 11.787 120.832 12.1666 121.322 12.6461L121.324 12.6481C122.293 13.638 122.834 14.9495 122.834 16.3139C122.834 17.6794 122.293 18.9909 121.324 19.9808L121.321 19.9838C120.327 20.9427 118.982 21.4811 117.58 21.4811C116.178 21.4811 114.833 20.9427 113.838 19.9838L113.835 19.9798C112.87 18.9889 112.333 17.6774 112.333 16.3139C112.333 14.9515 112.87 13.6399 113.835 12.649L113.838 12.6461C114.328 12.1666 114.911 11.787 115.553 11.5273ZM73.1854 11.4634C72.5315 11.4494 71.8816 11.5663 71.2761 11.805C70.6705 12.0438 70.1226 12.4013 69.6643 12.8538V12.8548C68.9671 13.536 68.4924 14.4011 68.2998 15.342C68.1072 16.283 68.205 17.2588 68.582 18.1458C68.9579 19.0328 69.5964 19.793 70.4161 20.3294C71.2359 20.8668 72.2009 21.1575 73.1896 21.1645L73.1947 21.1654C73.8446 21.1874 74.4923 21.0765 75.0958 20.8398C75.6993 20.6031 76.2441 20.2465 76.6952 19.792C77.0979 19.3834 77.411 18.9 77.6159 18.3716C77.8208 17.8422 77.9125 17.2778 77.8847 16.7135L78.0495 16.7055H77.8847C77.8847 16.5187 77.8713 16.3319 77.8435 16.1461H73.3533V16.9772H76.9341L76.929 17.143C76.9032 17.9061 76.5953 18.6343 76.0618 19.1957L76.0557 19.2027C75.48 19.7421 74.7519 20.1047 73.964 20.2435C73.1762 20.3823 72.3636 20.2924 71.6283 19.9838C70.894 19.6761 70.2699 19.1627 69.8343 18.5114C69.4007 17.8602 69.1741 17.099 69.1844 16.3239C69.1669 15.8045 69.2565 15.2881 69.4491 14.8026C69.6427 14.3172 69.9352 13.8737 70.309 13.5001C70.6829 13.1265 71.1309 12.8299 71.6262 12.6291C72.1195 12.4273 72.6499 12.3254 73.1844 12.3264C73.7189 12.2994 74.2524 12.3924 74.7436 12.5981C75.1813 12.7819 75.5737 13.0516 75.8981 13.3882L76.5366 12.7689C76.1504 12.3704 75.6787 12.0567 75.1535 11.852L75.1504 11.8509C74.5304 11.5932 73.8631 11.4614 73.1896 11.4634H73.1854ZM78.2142 16.7025C78.2431 17.3088 78.1442 17.9151 77.9248 18.4835C77.7045 19.0528 77.3667 19.5732 76.9331 20.0127C76.4491 20.5002 75.8651 20.8828 75.2194 21.1365C74.5737 21.3892 73.8806 21.5081 73.1854 21.4841C72.1319 21.4761 71.1041 21.1664 70.2318 20.5951C69.3585 20.0227 68.6777 19.2126 68.2771 18.2677C67.8755 17.3218 67.7715 16.283 67.9764 15.2801C68.1813 14.2772 68.687 13.3553 69.4295 12.6301C69.9187 12.1466 70.5047 11.7641 71.1525 11.5093C71.7982 11.2536 72.4923 11.1298 73.1906 11.1438C73.9084 11.1418 74.619 11.2826 75.2791 11.5563C75.8981 11.799 76.4501 12.1806 76.8888 12.669L76.9897 12.7819L75.8806 13.8577L75.7652 13.7238C75.4522 13.3642 75.0577 13.0786 74.6128 12.8918C74.1669 12.705 73.6829 12.6211 73.1978 12.6461L73.1875 12.647C72.6952 12.644 72.2071 12.738 71.7529 12.9238C71.2998 13.1086 70.8888 13.3802 70.5449 13.7228C70.2019 14.0655 69.9342 14.472 69.757 14.9175C69.5799 15.364 69.4975 15.8394 69.514 16.3169V16.3249C69.5037 17.0381 69.7117 17.7383 70.1113 18.3376C70.5109 18.937 71.0845 19.4074 71.7591 19.6901C72.4347 19.9738 73.1813 20.0567 73.9053 19.9288C74.6272 19.801 75.2946 19.4694 75.8229 18.9759C76.2627 18.5115 76.5304 17.9221 76.5891 17.2968H73.0238V15.8265H78.1216L78.1463 15.9583C78.1916 16.204 78.2142 16.4528 78.2142 16.7025ZM79.6643 11.3675H85.7611V12.8698H81.3121V15.5868H85.3656V17.0571H81.3121V19.774H85.7611V21.2763H79.6643V11.3675ZM79.9938 11.6871V20.9567H85.4315V20.0936H80.9825V16.7374H85.036V15.9064H80.9825V12.5502H85.4315V11.6871H79.9938ZM86.7992 11.3675H94V12.8698H91.1658V21.2763H89.5674V12.8698H86.7992V11.3675ZM87.1287 11.6871V12.5502H89.897V20.9567H90.8362V12.5502H93.6704V11.6871H87.1287ZM98.5149 11.3675H100.113V21.2763H98.5149V11.3675ZM98.8444 11.6871V20.9567H99.7837V11.6871H98.8444ZM101.382 11.3675H108.5V12.8698H105.749V21.2763H104.15V12.8698H101.382V11.3675ZM101.712 11.6871V12.5502H104.48V20.9567H105.419V12.5502H108.171V11.6871H101.712ZM124.286 11.3675H126.091L130.647 18.4345V11.3675H132.245V21.2763H130.67L125.901 13.8597V21.2763H124.286V11.3675ZM124.616 11.6871V20.9567H125.571V12.744L130.854 20.9567H131.915V11.6871H130.976V19.5483L125.909 11.6871H124.616ZM114.777 13.4601C115.522 12.741 116.529 12.3374 117.58 12.3374C118.63 12.3374 119.637 12.741 120.382 13.4601L120.388 13.4661C121.119 14.2482 121.524 15.2661 121.524 16.3219C121.524 17.3787 121.119 18.3965 120.388 19.1787L120.382 19.1847C119.638 19.9039 118.63 20.3074 117.58 20.3074C116.529 20.3074 115.522 19.9039 114.777 19.1847L114.894 19.0708L114.772 19.1787C114.04 18.3965 113.635 17.3787 113.635 16.3219C113.635 15.2661 114.04 14.2482 114.772 13.4661L114.777 13.4601ZM115.013 18.9609C115.695 19.6182 116.618 19.9878 117.58 19.9878C118.542 19.9878 119.464 19.6182 120.146 18.9609C120.822 18.2378 121.194 17.2978 121.194 16.3219C121.194 15.347 120.822 14.4071 120.146 13.6839C119.464 13.0266 118.542 12.657 117.58 12.657C116.618 12.657 115.695 13.0266 115.013 13.6839C114.339 14.4071 113.965 15.347 113.965 16.3219C113.965 17.2978 114.339 18.2378 115.013 18.9609Z" fill="white"/>
<path d="M17.2181 12.2906C16.6805 12.9159 16.4096 13.716 16.4601 14.5281V49.8799C16.4096 50.692 16.6805 51.4931 17.2181 52.1174L17.3334 52.2292L37.7494 32.4437V31.9803L17.3334 12.1787L17.2181 12.2906Z" fill="url(#paint0_linear)"/>
<path d="M44.5049 39.0457L37.749 32.4451V31.9817L44.5049 25.3652L44.6532 25.4451L52.7438 29.904C55.0507 31.1666 55.0507 33.2442 52.7438 34.5228L44.6862 38.9657L44.5049 39.0457Z" fill="url(#paint1_linear)"/>
<path d="M44.7027 38.9485L37.7491 32.2041L17.2178 52.1174C17.6884 52.519 18.2878 52.7477 18.9139 52.7657C19.5391 52.7827 20.1518 52.5879 20.6451 52.2133L44.7192 38.9485" fill="url(#paint2_linear)"/>
<path d="M44.7025 25.4599L20.6285 12.195C20.1362 11.8214 19.5235 11.6266 18.8973 11.6436C18.2722 11.6616 17.6718 11.8903 17.2021 12.2908L37.7499 32.2042L44.7025 25.4599Z" fill="url(#paint3_linear)"/>
<path opacity="0.25" d="M20.6287 12.4186L52.7439 30.1264C53.1641 30.3272 53.5307 30.6189 53.817 30.9795C54.1023 31.3401 54.299 31.7586 54.3917 32.2041C54.3505 31.7137 54.1754 31.2432 53.886 30.8386C53.5977 30.4351 53.2032 30.1115 52.7439 29.9027L20.6287 12.1948C18.3218 10.9323 16.4434 11.9871 16.4434 14.5442V14.7839C16.4928 12.2108 18.3383 11.156 20.6287 12.4186Z" fill="white"/>
</g>
</g>
<defs>
<linearGradient id="paint0_linear" x1="35.9368" y1="14.1605" x2="9.13177" y2="41.7973" gradientUnits="userSpaceOnUse">
<stop stop-color="#00A0FF"/>
<stop offset="0.01" stop-color="#00A1FF"/>
<stop offset="0.26" stop-color="#00BEFF"/>
<stop offset="0.51" stop-color="#00D2FF"/>
<stop offset="0.76" stop-color="#00DFFF"/>
<stop offset="1" stop-color="#00E3FF"/>
</linearGradient>
<linearGradient id="paint1_linear" x1="55.7592" y1="32.2054" x2="15.8995" y2="32.2054" gradientUnits="userSpaceOnUse">
<stop stop-color="#FFE000"/>
<stop offset="0.41" stop-color="#FFBD00"/>
<stop offset="0.78" stop-color="#FFA500"/>
<stop offset="1" stop-color="#FF9C00"/>
</linearGradient>
<linearGradient id="paint2_linear" x1="40.9293" y1="35.8799" x2="4.57117" y2="73.3498" gradientUnits="userSpaceOnUse">
<stop stop-color="#FF3A44"/>
<stop offset="1" stop-color="#C31162"/>
</linearGradient>
<linearGradient id="paint3_linear" x1="12.0446" y1="0.52824" x2="28.2735" y2="17.2618" gradientUnits="userSpaceOnUse">
<stop stop-color="#32A071"/>
<stop offset="0.07" stop-color="#2DA771"/>
<stop offset="0.48" stop-color="#15CF74"/>
<stop offset="0.8" stop-color="#06E775"/>
<stop offset="1" stop-color="#00F076"/>
</linearGradient>
<clipPath id="clip0">
<rect width="1440" height="5400" fill="white" transform="translate(-68 -654)"/>
</clipPath>
<clipPath id="clip1">
<rect width="1483" height="881" fill="white" transform="translate(-104 -619)"/>
</clipPath>
</defs>
</svg>
